# xmcd
#
# Track frame offsets: 
#        150
#        33151
#        52173
#        72936
#        89752
#        106876
#        122183
#        149094
#        164785
#        182463
#        198790
#        218643
#        243118
#        268226
#
# Disc length: 3847 seconds
#
# Revision: 0
# Processed by: cddbd v1.5.2PL0 Copyright (c) Steve Scherf et al.
# Submitted via: ExactAudioCopy v1.0b3
#
DISCID=d50f050e
DTITLE=Swamp Dogg - The White Man Made Me Do It 
DYEAR=2014
DGENRE=Blues
TTITLE0=The White Man Made Me Do It
TTITLE1=Lying Lying Lying Woman
TTITLE2=Hey Renae
TTITLE3=You Send Me
TTITLE4=Let Me Be Wrong
TTITLE5=Your Cash Ain't Nothing But Trash
TTITLE6=I'm So Happy
TTITLE7=That's What Lonesome Is
TTITLE8=Yeah, Yeah, Yeah, Yeah
TTITLE9=Where Is Sly
TTITLE10=Smokey Joe's Cafe
TTITLE11=Light A Candle- Ring A Bell
TTITLE12=Prejudice Is Alive And Well
TTITLE13=If That Ain't The Blues Nothing Is
EXTD=
EXTT0=
EXTT1=
EXTT2=
EXTT3=
EXTT4=
EXTT5=
EXTT6=
EXTT7=
EXTT8=
EXTT9=
EXTT10=
EXTT11=
EXTT12=
EXTT13=
PLAYORDER=
